<?xml version="1.0"?><svg width="640" height="480" xmlns="http://www.w3.org/2000/svg">
 <title>Pink Elephant</title>
 <g>
  <title>Layer 1</title>
  <path d="m421.409393,242.159821c8.771179,-7.55426 24.05069,-23.921814 22.444641,-57.915955c-1.606018,-33.994171 -20.719696,-65.470245 -37.295441,-69.8769c-16.575745,-4.406639 -83.77594,-27.698936 -94.016815,22.033272c-10.240875,49.732178 31.451324,66.099731 42.063965,64.211182c10.61264,-1.88855 21.324402,-28.328461 21.324402,-28.328461c0,0 -3.66806,28.957977 -16.739319,32.105621c-13.071228,3.147583 -46.044281,-1.888611 -55.323547,-38.400818c-9.279266,-36.512268 9.76004,-46.584625 -2.979095,-49.732216c-16.968018,-4.192497 -62.168945,-10.07235 -97.461823,15.738045c-35.292862,25.810364 -45.163239,75.542572 -35.958344,70.506378c9.204895,-5.036133 11.838257,-21.403687 14.291916,-9.44281c2.453644,11.960938 12.159195,30.846558 20.699875,38.400818c8.54068,7.55426 -3.767212,53.509338 -1.492004,61.693115c2.275208,8.183777 15.614105,10.701904 25.686462,10.701904c10.072357,0 32.764862,0.629517 31.17868,-6.295227c-1.586212,-6.924744 -9.735291,-19.515198 -10.98938,-32.735168c-1.254089,-13.21991 7.98053,-17.626587 11.787415,-16.99707c3.806885,0.629517 5.938354,6.075928 21.701141,6.295227c15.111969,0.210266 14.90033,-4.406677 21.225281,-3.7771c6.324951,0.629517 10.548218,10.072327 11.083557,21.403687c0.535339,11.331421 -3.425201,20.774231 -3.127777,27.069458c0.297424,6.295227 45.682465,7.55426 47.214111,0c1.531677,-7.55426 -6.498444,-17.626587 -6.94455,-27.069458c-0.446136,-9.44281 -0.079315,-28.32843 11.643646,-33.364624c11.722961,-5.036194 23.778076,-16.367554 31.689209,-8.813293c7.911163,7.55426 -19.673767,23.292297 -19.648987,37.141785c0.02478,13.849487 12.669739,28.32843 15.817352,28.32843c3.147614,0 16.189117,-3.7771 16.461731,-11.33136c0.272644,-7.55426 -10.310272,-5.036194 -10.726654,-13.849487c-0.416382,-8.813293 17.25531,-19.831299 26.39035,-27.698975z" id="path2383" stroke-width="1px" fill-rule="evenodd" fill="#7f7f7f"/>
  <ellipse id="svg_1" cy="160" cx="401" stroke-linecap="round" stroke-linejoin="round" stroke-dasharray="null" stroke-width="2" stroke="#ffffff" fill="#ffffff"/>
  <ellipse ry="5" rx="5" id="svg_2" cy="166" cx="412" stroke-linecap="round" stroke-linejoin="round" stroke-dasharray="null" stroke-width="2" stroke="#ffffff" fill="#ffffff"/>
 </g>
</svg>